<svg xmlns="http://www.w3.org/2000/svg" id="_x31__x2C_5" enable-background="new 0 0 36 36" height="512" viewBox="0 0 36 36" width="512">
  <path d="m8.377 4.167c6.917 0 11.667-3.583 15-3.583s10.333 1.916 10.333 17.249-9.417 17.583-13.083 17.583c-17.167.001-24.5-31.249-12.25-31.249z" fill="#efefef"/>
  <path d="m4.375 2.25h1v2h-1z" fill="#a4afc1"/>
  <path d="m1.125 5.25h2v1h-2z" fill="#a4afc1"/>
  <path d="m27.25 27.25h-18.5c-1.105 0-2-.895-2-2v-15h22.5v15c0 1.105-.895 2-2 2z" fill="#f3f3f1"/>
  <g fill="#2fdf84">
    <path d="m29.25 10.25h-22.5v-1.5c0-1.105.895-2 2-2h18.5c1.105 0 2 .895 2 2z"/>
    <path d="m25.25 13.75h-14.5v4.5h14.51z"/>
    <circle cx="23.5" cy="23.5" r="5.75"/>
  </g>
  <path d="m11 6.75h-2.25c-1.105 0-2 .895-2 2v1.5h2.25v-1.5c0-1.105.895-2 2-2z" fill="#00b871"/>
  <path d="m10.75 13.75h2.25v4.5h-2.25z" fill="#00b871"/>
  <path d="m20 23.5c0-2.79 1.988-5.115 4.625-5.638-.364-.072-.74-.112-1.125-.112-3.176 0-5.75 2.574-5.75 5.75s2.574 5.75 5.75 5.75c.385 0 .761-.039 1.125-.112-2.637-.523-4.625-2.848-4.625-5.638z" fill="#00b871"/>
  <path d="m9 25.25v-15h-2.25v15c0 1.105.895 2 2 2h2.25c-1.105 0-2-.895-2-2z" fill="#d5dbe1"/>
  <path d="m23.5 30c-3.584 0-6.5-2.916-6.5-6.5s2.916-6.5 6.5-6.5 6.5 2.916 6.5 6.5-2.916 6.5-6.5 6.5zm0-11.5c-2.757 0-5 2.243-5 5s2.243 5 5 5 5-2.243 5-5-2.243-5-5-5z"/>
  <path d="m20.275 22.75h6.45v1.5h-6.45z" transform="matrix(.707 -.707 .707 .707 -9.734 23.5)"/>
  <path d="m22.75 20.275h1.5v6.45h-1.5z" transform="matrix(.707 -.707 .707 .707 -9.734 23.5)"/>
  <path d="m16.51 19h-5.76c-.414 0-.75-.336-.75-.75v-4.5c0-.414.336-.75.75-.75h14.5c.414 0 .75.336.75.75v1.18h-1.5v-.43h-13v3h5.01z"/>
  <path d="m10.05 20.49h5.75v1.5h-5.75z"/>
  <path d="m10.05 23.49h5.49v1.5h-5.49z"/>
  <path d="m15.59 28h-6.84c-1.517 0-2.75-1.233-2.75-2.75v-16.5c0-1.517 1.233-2.75 2.75-2.75h18.5c1.517 0 2.75 1.233 2.75 2.75v8.17h-1.5v-8.17c0-.689-.561-1.25-1.25-1.25h-18.5c-.689 0-1.25.561-1.25 1.25v16.5c0 .689.561 1.25 1.25 1.25h6.84z"/>
  <path d="m6.75 9.5h22.5v1.5h-22.5z"/>
</svg>