<svg xmlns="http://www.w3.org/2000/svg" width="570.23" height="788.67" viewBox="0 0 570.23 788.67">
  <defs>
    <style>
      .cls-1 {
        fill: #30C97B;
        fill-rule: evenodd;
      }
    </style>
  </defs>
  <title>logo</title>
  <g id="Layer_2" data-name="Layer 2">
    <g id="Layer_1-2" data-name="Layer 1">
      <path class="cls-1" d="M540.46,384.32c-61.34-134.08-109.34-207.54-105-340.76-12.09,12.8-12.27,14.72-20.45,25.11-21.17,26.91-29.39,42.05-33.33,86-1.32,53.9,6,62.67-11,112-6.3-37.29-10.87-46.53-19.77-67.59C320.53,127.18,267.21,73.61,211.42,36.39c-16.07-10.72-44.3-30.15-75-36.39C154.85,27.21,175,74.81,177.78,100.9c3.35,31.29,6.7,60.55-7.72,99.24-17.15,46-41.13,85.84-52.93,118-5.5,15-6.69,20.81-13.23,44.11C95.6,330.6,65.31,262.8,35,256.93q.64,2.32,1.24,4.59C48,305.93,43.6,352.9,24.8,394.84A285.37,285.37,0,0,0,218.66,788.67a179,179,0,1,1,133.17-.11c125.27-30,218.39-142.77,218.39-277.26C570.23,465.68,558.23,423.17,540.46,384.32Z"/>
    </g>
  </g>
</svg>