<?xml version="1.0" encoding="utf-8"?>
<!-- Generator: Adobe Illustrator 20.1.0, SVG Export Plug-In . SVG Version: 6.00 Build 0)  -->
<svg version="1.1" id="Layer_1" xmlns="http://www.w3.org/2000/svg" xmlns:xlink="http://www.w3.org/1999/xlink" x="0px" y="0px"
	 viewBox="0 0 24 24" style="enable-background:new 0 0 24 24;" xml:space="preserve">
<style type="text/css">
	.st0{fill:#ffffff;}
</style>
<path class="st0" d="M23,9.7c0-1.4-0.3-2.9-0.9-4.1c-0.4-0.5-1-0.9-1.7-1c-2.8-0.3-5.6-0.4-8.4-0.3c-2.8,0-5.6,0.1-8.3,0.3
	C3.1,4.7,2.6,4.9,2.2,5.3c-0.9,0.8-1,2.3-1.1,3.4c-0.1,2.2-0.1,4.3,0,6.5c0,0.7,0.1,1.3,0.3,2c0.1,0.5,0.4,1,0.7,1.4
	C2.5,19,3,19.3,3.6,19.4c2.2,0.3,4.3,0.4,6.5,0.3c3.5,0,6.6,0,10.2-0.3c0.6-0.1,1.1-0.4,1.5-0.8c0.3-0.3,0.5-0.6,0.6-1
	c0.4-1.1,0.5-2.2,0.5-3.4C23,13.7,23,10.3,23,9.7z M9.7,14.9V8.7l5.9,3.1C14,12.7,11.8,13.7,9.7,14.9z"/>
</svg>
